<svg id="Laag_1" data-name="Laag 1" xmlns="http://www.w3.org/2000/svg" viewBox="0 0 181.51114 113.55922"><defs><style>.cls-1{fill:#1d1d1b;}</style></defs><title>funny</title><path class="cls-1" d="M17.01952,199.77244c-.09077-1.73016-.73926-4.544.07579-6.11343.857-1.65027,2.95323-1.71567,4.61548-1.47192,3.93259.57667,3.80793,5.24467,4.40238,8.411.593,3.15854,5.41281,1.82091,4.8214-1.3292-.56757-3.02309-.80015-6.514-2.74062-9.03339-1.78027-2.31141-4.75546-3.06508-7.56391-3.1374a8.8201,8.8201,0,0,0-7.29205,3.0827c-2.13,2.72064-1.48666,6.38582-1.31847,9.59166.16794,3.20118,5.169,3.221,5,0Z" transform="translate(-11.79678 -93.7737)"/><path class="cls-1" d="M31.10791,200.91245c-.28067-2.77935-.22431-7.3364,3.77252-6.52953a8.63912,8.63912,0,0,1,3.27656,1.241c1.38219,1.00835,1.19488,2.59119,1.1292,4.14452-.136,3.21737,4.86423,3.211,5,0,.11618-2.74756-.18084-5.47967-2.2784-7.47519a13.05575,13.05575,0,0,0-7.38329-2.999c-6.67572-.63543-9.07214,6.11686-8.51659,11.61821.32022,3.17092,5.32355,3.204,5,0Z" transform="translate(-11.79678 -93.7737)"/><path class="cls-1" d="M44.16979,199.96411c.02713-1.07891-.19548-3.55106.53135-4.38681.77915-.8959,2.2119-.77941,3.33633-.74185,2.35281.07859,5.899,1.423,5.452,4.42449-.46875,3.14767,4.34835,4.50571,4.8214,1.32919.88109-5.91662-3.61492-10.15793-9.306-10.69473-2.31827-.21867-5.58243-.11422-7.4444,1.52348-2.24439,1.97405-2.32223,5.823-2.39072,8.54623-.081,3.21871,4.91908,3.21705,5,0Z" transform="translate(-11.79678 -93.7737)"/><path class="cls-1" d="M147.094,200.407a5.07042,5.07042,0,0,1,3.87821-5.74047c3.28157-.62722,3.10569,4.62633,3.13942,6.83235.04914,3.21439,5.04929,3.224,5,0-.0849-5.55289-1.58047-12.99659-8.75907-11.78883-5.8161.97852-8.94029,6.47535-8.07995,12.02615.49133,3.17005,5.31008,1.82377,4.82139-1.3292Z" transform="translate(-11.79678 -93.7737)"/><path class="cls-1" d="M159.1821,201.97481c.54585-3.51854,1.59159-6.88914,5.92247-6.63607,3.43207.20055,5.51864,3.08894,5.48837,6.36013-.02979,3.21827,4.97019,3.221,5,0A10.99448,10.99448,0,0,0,165.774,190.3712c-6.7553-.64-10.46675,4.17285-11.41331,10.27441-.48834,3.14786,4.32883,4.50425,4.82139,1.3292Z" transform="translate(-11.79678 -93.7737)"/><path class="cls-1" d="M175.53912,202.15874c.26974-1.56054.44825-3.423,1.348-4.779,1.31132-1.97633,3.35771-1.66174,5.38048-1.27223,1.71473.3302,4.53939.83075,5.54062,2.453.83161,1.34735.52977,3.37771.43956,4.86788-.19456,3.21387,4.80613,3.20243,5,0,.17982-2.97049.06542-6.08579-1.89761-8.5036-2.0689-2.54822-5.92322-3.36708-8.99769-3.87127-7.08961-1.16266-10.5035,3.2316-11.63475,9.776-.544,3.14708,4.27351,4.49879,4.8214,1.3292Z" transform="translate(-11.79678 -93.7737)"/><path class="cls-1" d="M69.73868,198.59707a47.15472,47.15472,0,0,1-4.51351-22.8294,25.67033,25.67033,0,0,1,3.1803-11.3092c2.617-4.40411,6.435-4.70857,10.95057-3.0117,6.47592,2.43351,7.867,12.00354,9.13043,18.119,1.46573,7.09477,2.40048,14.26618,4.495,21.22068.92553,3.07309,5.75289,1.76372,4.82139-1.3292-2.96475-9.844-3.51068-20.26261-6.77779-30.0183-1.19033-3.55437-2.6623-8.17906-5.63081-10.69107-2.912-2.46417-8.41214-3.44314-12.07335-3.55256-8.15685-.24379-11.874,11.10045-12.78763,17.5683-1.37041,9.70122.83832,19.55255,4.88807,28.35706,1.34306,2.91994,5.654.38251,4.31735-2.52359Z" transform="translate(-11.79678 -93.7737)"/><path class="cls-1" d="M98.03377,199.76851c-.53049-8.35108-1.35836-16.86772-1.2015-25.23866a20.82257,20.82257,0,0,1,3.89094-11.92051c1.92011-2.84833,3.62075-4.33885,7.31946-4.30855,1.63013.01335,3.63627.98608,5.16225,1.53983,8.81427,3.19853,10.979,10.016,11.38833,18.83488.39877,8.59183-1.11265,17.10169-2.6244,25.52177-.56488,3.14629,4.25279,4.49625,4.8214,1.3292,1.95563-10.89243,3.9167-22.03709,2.16642-33.09719-1.53521-9.701-6.61141-14.8519-15.77665-17.87359-3.74827-1.23577-8.17877-2.35005-11.81566-.15154-3.52194,2.129-6.28372,7.165-7.857,10.80212-2.09767,4.84941-1.68378,9.96377-1.48228,15.12893q.37932,9.72311,1.00868,19.43331c.203,3.19556,5.20444,3.21844,5,0Z" transform="translate(-11.79678 -93.7737)"/><path class="cls-1" d="M106.4203,199.96368c-.31034-5.12177-4.87623-17.80867.12252-21.3,2.61909-1.8293.12288-6.16578-2.5236-4.31735-8.03033,5.60879-3.07487,17.76259-2.59892,25.6174.19373,3.19712,5.19507,3.2192,5,0Z" transform="translate(-11.79678 -93.7737)"/><path class="cls-1" d="M103.26379,176.21853c-.3392,1.91737-.66323,4.09484.05243,5.96423a4.98945,4.98945,0,0,0,3.9272,3.11307c4.03894.65181,6.84378-2.90009,6.86916-6.67.02167-3.21805-4.9783-3.22151-5,0a2.30483,2.30483,0,0,1-.384,1.4498c-.07136.08972-.34335.31037-.27628.27131-.07391.043-.45263.07754-.18173.08669q-.43143-.15939-.27434-.05473a.0702.0702,0,0,1,.03983.07243q-.40148-.44177-.037.05808l-.09243-.35918c.09321-.86788.02439-1.73114.17854-2.60246a2.57139,2.57139,0,0,0-1.7461-3.0753,2.52131,2.52131,0,0,0-3.0753,1.7461Z" transform="translate(-11.79678 -93.7737)"/><path class="cls-1" d="M109.45736,179.58757a38.20062,38.20062,0,0,1,3.21793,21.54274c-.41477,3.18125,4.58919,3.15088,5,0a42.77827,42.77827,0,0,0-3.90058-24.06634c-1.36753-2.91006-5.67935-.3747-4.31735,2.5236Z" transform="translate(-11.79678 -93.7737)"/><path class="cls-1" d="M103.85856,183.28845c-1.76471,3.31282-.29409,7.68616.20031,11.18987.3231,2.28976.56748,8.1169,4.13368,7.81254,3.18225-.27159,3.21107-5.27405,0-5l-.22514.01922,1.76777.73223c-.91994-.98922-.82812-4.70326-1.0118-6.005-.21862-1.54931-1.29327-4.82517-.54747-6.22524,1.51223-2.83885-2.80232-5.3677-4.31735-2.5236Z" transform="translate(-11.79678 -93.7737)"/><path class="cls-1" d="M107.17937,186.407c1.26732,4.40571.75685,8.86818.11815,13.33812-.4497,3.14726,4.36734,4.50691,4.82139,1.32919.76747-5.37112,1.40712-10.6941-.11815-15.99651-.88789-3.08666-5.71407-1.77409-4.82139,1.3292Z" transform="translate(-11.79678 -93.7737)"/><path class="cls-1" d="M109.46342,194.192q-.04224,3.19226-.3829,6.364a2.516,2.516,0,0,0,2.5,2.5,2.55727,2.55727,0,0,0,2.5-2.5q.34081-3.1743.3829-6.364c.04259-3.21854-4.95738-3.22019-5,0Z" transform="translate(-11.79678 -93.7737)"/><path class="cls-1" d="M78.05423,198.72442c-1.995-5.2095-4.9729-13.15979-.5013-17.83358,2.22464-2.32525-1.30574-5.86616-3.53554-3.53554-5.96276,6.2324-3.53838,15.50725-.78456,22.69832,1.13916,2.97469,5.97508,1.68342,4.8214-1.3292Z" transform="translate(-11.79678 -93.7737)"/><path class="cls-1" d="M73.75535,179.38775c-.33849,4.42839.77971,10.05006,6.25422,10.02616,2.35056-.01026,4.44963-.82414,5.295-3.17256a11.14239,11.14239,0,0,0,.23413-7.32011,2.56972,2.56972,0,0,0-3.0753-1.7461,2.51982,2.51982,0,0,0-1.74609,3.07529,5.68584,5.68584,0,0,1,.10859,3.33335q-.09621.46629-.21366.92767.4458-.18485.1596-.12875a2.75333,2.75333,0,0,1-1.23383.02461c-1.14086-.48092-.86609-3.9281-.78266-5.01956.24529-3.20911-4.75592-3.1933-5,0Z" transform="translate(-11.79678 -93.7737)"/><path class="cls-1" d="M80.71391,180.06017a32.26534,32.26534,0,0,1,.34985,20.75353c-.96318,3.078,3.8621,4.39477,4.8214,1.3292a36.91455,36.91455,0,0,0-.34985-23.41193c-1.05113-3.01986-5.88313-1.72113-4.8214,1.3292Z" transform="translate(-11.79678 -93.7737)"/><path class="cls-1" d="M74.51831,190.45965l4.16225,11.11788c.69489,1.85614,3.50533,2.667,4.56937.5972l.88779-1.727c1.46868-2.85692-2.84414-5.38934-4.31735-2.5236l-.88779,1.727,4.56938.5972-4.16225-11.11788c-1.118-2.9862-5.95288-1.69314-4.8214,1.3292Z" transform="translate(-11.79678 -93.7737)"/><path class="cls-1" d="M84.63805,189.70645l-.0453-.15925a2.58618,2.58618,0,0,0-2.4107-1.8354l-.19494-.017a2.55028,2.55028,0,0,0-2.4107,1.8354c-.619,1.54655-.43709,3.64976-.56225,5.304l-.43992,5.81427,4.65867-1.2618-.57461-1.09137c-1.49968-2.8483-5.81673-.32414-4.31736,2.5236l.57462,1.09136c1.23706,2.34952,4.48419,1.04436,4.65868-1.26179l.38126-5.039c.10532-1.392-.07779-3.45066.44231-4.75l-2.4107,1.8354.19494.017-2.4107-1.8354.0453.15925c.87894,3.08974,5.70485,1.7764,4.8214-1.3292Z" transform="translate(-11.79678 -93.7737)"/><path class="cls-1" d="M73.23681,188.70434l.19358.96128a2.51571,2.51571,0,0,0,3.0753,1.7461,2.56218,2.56218,0,0,0,1.7461-3.0753l-.19359-.96128a2.51569,2.51569,0,0,0-3.07529-1.7461,2.56217,2.56217,0,0,0-1.7461,3.0753Z" transform="translate(-11.79678 -93.7737)"/><path class="cls-1" d="M60.09363,196.78478c-3.50643-7.63274-7.01493-15.36641-8.84347-23.60548-1.67782-7.56-2.50836-17.69972,2.77824-24.11547C64.37692,136.505,82.965,138.41509,97.19445,139.93469c7.7592.82863,15.61033,1.44086,23.30388,2.76249,3.73134.641,7.862,1.35575,11.2681,3.09269,3.91212,1.995,5.78693,5.81789,7.51375,9.6642a61.77339,61.77339,0,0,1,2.06832,44.19383c-.99135,3.06911,3.83481,4.38358,4.82139,1.32919a66.88893,66.88893,0,0,0,.36774-40.353c-1.7371-5.58055-4.09927-12.14677-8.29144-16.37834-4.36015-4.40113-11.47361-5.57427-17.31319-6.51256-7.24049-1.16338-14.57579-1.81489-21.86459-2.59795-7.81493-.83957-15.76655-2.025-23.63191-1.18826-11.13324,1.18435-24.86411,6.8904-28.77989,18.31508-5.3868,15.71655,2.65649,32.97736,9.11967,47.0463,1.34165,2.9205,5.6526.38295,4.31735-2.52359Z" transform="translate(-11.79678 -93.7737)"/><path class="cls-1" d="M89.2154,131.68566a91.585,91.585,0,0,0-9.762-21.25115c-2.11914-3.3519-6.55844-12.8398-11.68142-9.582a2.508,2.508,0,0,0-1.2382,2.15868,3.87037,3.87037,0,0,0,2.13253,3.7551,2.524,2.524,0,0,0,2.5236,0,3.41516,3.41516,0,0,0,2.26736-2.94233c.63461-3.14169-4.18377-4.48581-4.82139-1.3292l.03043-.04582h2.5236l-.84095-.57762,1.2382,2.15868-.05338-1.01881-1.2382,2.15867c-.22316.14192,7.02437,11.397,7.82967,12.88808A86.61973,86.61973,0,0,1,84.394,133.01485c.97213,3.05481,5.80109,1.74939,4.8214-1.32919Z" transform="translate(-11.79678 -93.7737)"/><path class="cls-1" d="M98.3229,134.872c2.05516-6.58375,6.84153-22.39993,16.31212-21.06211,3.14712.44456,4.50719-4.37247,1.3292-4.8214-13.24785-1.87139-19.34056,14.5524-22.46272,24.55431-.961,3.07863,3.8642,4.3956,4.8214,1.3292Z" transform="translate(-11.79678 -93.7737)"/><path class="cls-1" d="M93.77267,132.85463c.18723-3.36212,2.163-34.09368,2.5719-34.07274,3.21593.16464,3.20707-4.83581,0-5-6.202-.31752-5.3154,8.67418-5.67778,12.72776q-1.17606,13.15563-1.89412,26.345c-.179,3.215,4.82153,3.2049,5,0Z" transform="translate(-11.79678 -93.7737)"/></svg>